<svg id="Layer_1" data-name="Layer 1" xmlns="http://www.w3.org/2000/svg" viewBox="0 0 184 42"><defs><style>.cls-1{fill:#1884bc;}.cls-2{fill:#62a9d1;}.cls-3{fill:#e84623;}.cls-4{fill:#ef795a;}.cls-5{fill:#fff;}</style></defs><path class="cls-1" d="M41.78,10.23a24.19,24.19,0,0,0-4.69,2.44,7.72,7.72,0,0,0-.94.75l-.85.85a3.66,3.66,0,0,0-.75.94,1.85,1.85,0,0,1-.37.47c-.1.18-.19.28-.29.47-.18.37-.47.75-.75,1.22a6.47,6.47,0,0,1-1,1.31,7.35,7.35,0,0,1-1.31,1,9.92,9.92,0,0,1-1.41.66,10.68,10.68,0,0,1-2.82.66,14.7,14.7,0,0,1-2.81.09c1.59-1,3.28-1.78,4.69-2.72a9.47,9.47,0,0,0,1.78-1.5,9.56,9.56,0,0,0,.66-.94c.19-.38.47-.75.66-1.13a2.69,2.69,0,0,1,.47-.66c.18-.18.28-.47.47-.65l1.12-1.13a11.1,11.1,0,0,1,2.63-1.6A10.66,10.66,0,0,1,39.15,10a6.56,6.56,0,0,1,2.63.19"/><path class="cls-2" d="M26,0a21.87,21.87,0,0,0-.85,5.26V6.48c0,.37.1.84.1,1.22a2.44,2.44,0,0,0,.28,1.12,1.28,1.28,0,0,0,.19.57c.09.18.09.37.19.56.18.38.37.84.56,1.31a4.41,4.41,0,0,1,.37,1.6,4.8,4.8,0,0,1,0,1.69c-.09.56-.18,1-.28,1.5a11,11,0,0,1-1.12,2.63A14.09,14.09,0,0,1,23.76,21c.18-1.88.56-3.76.65-5.45a8.77,8.77,0,0,0-.18-2.25,4.59,4.59,0,0,0-.38-1,12.87,12.87,0,0,1-.56-1.22,5.21,5.21,0,0,1-.28-.75,2.13,2.13,0,0,1-.19-.76,8.66,8.66,0,0,1-.19-1.5,8.1,8.1,0,0,1,.28-3A13.56,13.56,0,0,1,24,2.35,9.69,9.69,0,0,1,26,0"/><path class="cls-3" d="M23.76,21a27.06,27.06,0,0,1-5.17-1.22c-.37-.19-.75-.29-1.12-.47a10.82,10.82,0,0,1-1-.57,8.31,8.31,0,0,1-.93-.65c-.19-.1-.29-.29-.47-.38a1.72,1.72,0,0,1-.38-.47,10.68,10.68,0,0,0-1-.94,7.48,7.48,0,0,0-1.32-.94,9.32,9.32,0,0,0-1.5-.65,5.85,5.85,0,0,0-1.59-.47,14.14,14.14,0,0,0-2.91,0,10.28,10.28,0,0,0-2.82.65c1.88.57,3.66.94,5.26,1.51a7,7,0,0,1,2.06,1,6.35,6.35,0,0,1,.85.75,8.33,8.33,0,0,0,.94.94l.56.56a1.59,1.59,0,0,0,.66.47c.37.28.84.56,1.31.85A11.31,11.31,0,0,0,18,22a9.79,9.79,0,0,0,2.91,0A8.92,8.92,0,0,0,23.76,21"/><path class="cls-4" d="M23.76,21a23.94,23.94,0,0,1-4,3.56,9.23,9.23,0,0,0-1,.66,5.42,5.42,0,0,1-1.13.47c-.37.09-.75.28-1.13.37-.18.1-.37.1-.56.19s-.37.1-.56.1a10.83,10.83,0,0,0-1.41.28,8.65,8.65,0,0,0-1.5.47A4.51,4.51,0,0,0,11,28c-.38.38-.75.66-1.13,1a14.85,14.85,0,0,0-1.69,2.45,9.23,9.23,0,0,0-1,2.62C8.64,33,10,31.63,11.37,30.6a9,9,0,0,1,2.06-1.13c.38-.09.66-.18,1.13-.28s.84-.09,1.31-.19a3,3,0,0,0,.75-.18c.28-.1.47-.1.75-.19A9.92,9.92,0,0,0,18.78,28a8,8,0,0,0,2.44-1.88,13.82,13.82,0,0,0,1.69-2.44A10.74,10.74,0,0,0,23.76,21"/><path class="cls-3" d="M56.33,26.38s-2.25.75-2.63,2.25-.94,3.19.28,3.28,4.41,0,4.88-2.06,1.13-3.76,0-3.66-2.25.28-2.25.28l-.28-.09Z"/><path class="cls-1" d="M43,26.38s-2.25.75-2.63,2.25-.94,3.19.28,3.28,4.41,0,4.88-2.06,1.13-3.76,0-3.66-2.25.28-2.25.28L43,26.38Z"/><path class="cls-5" d="M26.29,27.41a2.15,2.15,0,0,0-.56-.19h-.85c-.09,0-.19-.09-.28-.28s0-.38.28-.56a2.77,2.77,0,0,1,1-.57,3.73,3.73,0,0,1,1.4-.18,2.44,2.44,0,0,1,1.5.56,10.15,10.15,0,0,1,1,1c.28.28.47.66.65.85a3.12,3.12,0,0,1,.38.84,7.93,7.93,0,0,1,1.78-1.31,7.59,7.59,0,0,1,1.79-.75,3.13,3.13,0,0,1,1.87,0c.19.09.19.18.19.37a.78.78,0,0,1-.28.56,4.56,4.56,0,0,1-.66.66,2.77,2.77,0,0,1-.94.47,3.73,3.73,0,0,0-1.68.94,3.61,3.61,0,0,0-.94,1.5,10.34,10.34,0,0,0-.47,1.88,13,13,0,0,0-.1,2,5.88,5.88,0,0,1-.56,2.91,2,2,0,0,1-1.5,1,1.71,1.71,0,0,1-1.69-1,8.65,8.65,0,0,1-.56-3.66V31.63a13,13,0,0,0-.1-2.06,10.22,10.22,0,0,0-.28-1.32.88.88,0,0,0-.47-.84"/><path class="cls-5" d="M38.68,27.69a4.22,4.22,0,0,1,1.13-1.41,5.25,5.25,0,0,1,1.5-.94A5.89,5.89,0,0,1,43,24.78a13.53,13.53,0,0,1,1.78-.19,2.09,2.09,0,0,1,1.5.57,4,4,0,0,1,.94,1.31,4.11,4.11,0,0,1,.1,1.88,4.42,4.42,0,0,1-.85,2.06,4.79,4.79,0,0,1-1.69,1.69,8.64,8.64,0,0,1-1.59.85,5.59,5.59,0,0,1-1.69.28,12.16,12.16,0,0,0,.18,2,4.76,4.76,0,0,0,.29.66,2.54,2.54,0,0,0,.47.56,1.5,1.5,0,0,0,.65.38,1.66,1.66,0,0,0,.94,0A3.42,3.42,0,0,0,45.81,36a6.31,6.31,0,0,0,1.13-1.22c.28-.46.56-.75.75-1.12s.38-.47.57-.38a.87.87,0,0,1,.37.75,4.53,4.53,0,0,1-.28,1.41,7.05,7.05,0,0,1-.85,1.69A4.34,4.34,0,0,1,46,38.58a6.7,6.7,0,0,1-2.06.84,5.61,5.61,0,0,1-2.72-.28,6.71,6.71,0,0,1-2-1.12A4.8,4.8,0,0,1,38,36.23a8,8,0,0,1-.56-2.16,10.17,10.17,0,0,1,0-2.34,7.91,7.91,0,0,1,.47-2.16,7.27,7.27,0,0,1,.75-1.88M41.5,31a2.83,2.83,0,0,0,.84-.19,10.21,10.21,0,0,0,.94-.47,6.6,6.6,0,0,0,1-.85,3.25,3.25,0,0,0,.75-1,1.51,1.51,0,0,0,.19-.84,2.15,2.15,0,0,0-.09-.75,1.5,1.5,0,0,0-.94,0,8.17,8.17,0,0,0-.94.47,5.68,5.68,0,0,0-1,1.12,4.2,4.2,0,0,0-.57,1,3.17,3.17,0,0,0-.18.75,1,1,0,0,0,0,.76"/><path class="cls-5" d="M51.54,27.69a4.22,4.22,0,0,1,1.13-1.41,5.25,5.25,0,0,1,1.5-.94,5.89,5.89,0,0,1,1.69-.56,13.53,13.53,0,0,1,1.78-.19,2.09,2.09,0,0,1,1.5.57,4.11,4.11,0,0,1,.94,1.31,4.11,4.11,0,0,1,.1,1.88,4.42,4.42,0,0,1-.85,2.06,4.79,4.79,0,0,1-1.69,1.69,8.64,8.64,0,0,1-1.59.85,5.59,5.59,0,0,1-1.69.28,12.16,12.16,0,0,0,.18,2,4.76,4.76,0,0,0,.29.66,2.54,2.54,0,0,0,.47.56,1.5,1.5,0,0,0,.65.38,1.66,1.66,0,0,0,.94,0A3.42,3.42,0,0,0,58.67,36a6.31,6.31,0,0,0,1.13-1.22c.28-.46.56-.75.75-1.12s.38-.47.56-.38a.85.85,0,0,1,.38.75,4.53,4.53,0,0,1-.28,1.41,7.05,7.05,0,0,1-.85,1.69,4.34,4.34,0,0,1-1.5,1.41,6.7,6.7,0,0,1-2.06.84,5.15,5.15,0,0,1-2.63-.18,6.9,6.9,0,0,1-2-1.13A4.62,4.62,0,0,1,51,36.33a8.48,8.48,0,0,1-.57-2.16,10.26,10.26,0,0,1,0-2.35,8.39,8.39,0,0,1,.47-2.16,3.14,3.14,0,0,1,.66-2M54.36,31a2.83,2.83,0,0,0,.84-.19,10.21,10.21,0,0,0,.94-.47,6.6,6.6,0,0,0,1-.85,3.25,3.25,0,0,0,.75-1,1.51,1.51,0,0,0,.19-.84,2.15,2.15,0,0,0-.09-.75,1.5,1.5,0,0,0-.94,0,8.17,8.17,0,0,0-.94.47,5.68,5.68,0,0,0-1,1.12,4.2,4.2,0,0,0-.57,1,3.17,3.17,0,0,0-.18.75,1,1,0,0,0,0,.76"/><path class="cls-5" d="M72.57,18.3a.6.6,0,0,1-.47.57,3.7,3.7,0,0,1-1,.09,4.71,4.71,0,0,0-1.12.09,1,1,0,0,0-.75.57,8,8,0,0,0-.38,1.12,7.58,7.58,0,0,0-.19,1.41c0,.47-.09,1-.09,1.6v1.59c0,1.22,0,2.54.09,3.95a4.83,4.83,0,0,1,.85-.19c.28-.1.66-.1,1-.19s.94-.19,1.5-.28a3.67,3.67,0,0,1,1.41,0,1.43,1.43,0,0,1,.75.37.41.41,0,0,1,0,.47c-.09.19-.28.29-.65.38-.66.19-1.32.37-1.88.56a12,12,0,0,0-1.5.57c-.57.18-.94.47-1.41.65a32.06,32.06,0,0,1,.09,4.23,8.91,8.91,0,0,1-.09,1.59c0,.57-.1,1-.1,1.5a4.37,4.37,0,0,1-.28,1.22,1.46,1.46,0,0,1-.37.76,3.29,3.29,0,0,1-.94.65,4.12,4.12,0,0,1-.94.38,2.08,2.08,0,0,1-.75,0A.64.64,0,0,1,65,41.4c0-.19-.09-.38-.09-.76a5.57,5.57,0,0,0-.09-1.12,5.83,5.83,0,0,1,0-1.32V36.8c0-1.13,0-2.26.09-3.57a.2.2,0,0,0-.19.19,1.84,1.84,0,0,1-.75.18.83.83,0,0,1-.94-.37A1.34,1.34,0,0,1,63,32a1.77,1.77,0,0,1,.47-.66l.56-.56a3.38,3.38,0,0,1,.85-.47c-.09-1.5-.09-3-.09-4.41A13.79,13.79,0,0,1,64.87,24c.09-.66.09-1.22.19-1.88s.19-1.22.28-1.69a6,6,0,0,1,.47-1.41,3.87,3.87,0,0,1,1.12-1.5A2.29,2.29,0,0,1,68.34,17a8.35,8.35,0,0,1,1.5,0,5.22,5.22,0,0,1,1.32.38,3.94,3.94,0,0,1,.94.56c.37.09.47.28.47.37"/></svg>