<?xml version="1.0" encoding="utf-8"?>
<!-- Generator: Adobe Illustrator 24.1.0, SVG Export Plug-In . SVG Version: 6.00 Build 0)  -->
<svg version="1.1" id="Layer_1" xmlns="http://www.w3.org/2000/svg" xmlns:xlink="http://www.w3.org/1999/xlink" x="0px" y="0px"
	 viewBox="0 0 86.3 55.9" style="enable-background:new 0 0 86.3 55.9;" xml:space="preserve">
<style type="text/css">
	.st0{fill:#1983BB;}
	.st1{fill:#61A8D0;}
	.st2{fill:#E84420;}
	.st3{fill:#EF785A;}
	.st4{fill:#0F394B;}
</style>
<g>
	<path class="st0" d="M40.6,11.6c-1.9,0.8-3.6,1.6-5,2.6c-0.4,0.3-0.7,0.5-1,0.8c-0.3,0.3-0.6,0.6-0.9,0.9c-0.3,0.3-0.6,0.6-0.8,1
		c-0.1,0.2-0.2,0.3-0.4,0.5c-0.1,0.2-0.2,0.3-0.3,0.5c-0.2,0.4-0.5,0.8-0.8,1.3c-0.3,0.5-0.6,0.9-1.1,1.4c-0.4,0.4-0.9,0.8-1.4,1.1
		c-0.5,0.3-1,0.5-1.5,0.7c-1,0.4-2,0.6-3,0.7c-1,0.1-2,0.2-3,0.1c1.7-1.1,3.5-1.9,5-2.9c0.7-0.5,1.4-1,1.9-1.6
		c0.2-0.3,0.5-0.6,0.7-1c0.2-0.4,0.5-0.8,0.7-1.2c0.1-0.2,0.3-0.5,0.5-0.7c0.2-0.2,0.3-0.5,0.5-0.7c0.4-0.4,0.8-0.8,1.2-1.2
		c0.9-0.7,1.8-1.3,2.8-1.7c1-0.4,2-0.7,3.1-0.8C38.6,11.3,39.6,11.3,40.6,11.6"/>
	<path class="st1" d="M23.8,0.7c-0.5,2-0.9,3.8-0.9,5.6c0,0.4,0,0.9,0,1.3c0,0.4,0.1,0.9,0.1,1.3s0.1,0.8,0.3,1.2
		c0,0.2,0.1,0.4,0.2,0.6c0.1,0.2,0.1,0.4,0.2,0.6c0.2,0.4,0.4,0.9,0.6,1.4c0.2,0.5,0.4,1.1,0.4,1.7c0.1,0.6,0.1,1.2,0,1.8
		c-0.1,0.6-0.2,1.1-0.3,1.6c-0.3,1-0.7,2-1.2,2.8c-0.5,0.9-1.1,1.7-1.8,2.5c0.2-2,0.6-4,0.7-5.8c0-0.9,0-1.7-0.2-2.4
		c-0.1-0.4-0.2-0.7-0.4-1.1c-0.2-0.4-0.4-0.8-0.6-1.3c-0.1-0.2-0.2-0.5-0.3-0.8c-0.1-0.3-0.2-0.5-0.2-0.8c-0.1-0.6-0.2-1.1-0.2-1.6
		c-0.1-1.1,0-2.2,0.3-3.2s0.7-2,1.2-2.9C22.3,2.2,23,1.4,23.8,0.7"/>
	<path class="st2" d="M21.4,23.1c-2-0.3-3.9-0.7-5.5-1.3c-0.4-0.2-0.8-0.3-1.2-0.5c-0.4-0.2-0.8-0.4-1.1-0.6c-0.4-0.2-0.7-0.5-1-0.7
		c-0.2-0.1-0.3-0.3-0.5-0.4c-0.1-0.1-0.3-0.3-0.4-0.5c-0.3-0.3-0.7-0.7-1.1-1c-0.4-0.4-0.9-0.7-1.4-1c-0.5-0.3-1.1-0.5-1.6-0.7
		C7,16.1,6.4,16,5.9,15.9c-1.1-0.1-2.1-0.1-3.1,0c-1,0.1-2,0.3-3,0.7c2,0.6,3.9,1,5.6,1.6c0.8,0.3,1.6,0.6,2.2,1.1
		c0.3,0.2,0.6,0.5,0.9,0.8c0.3,0.3,0.6,0.7,1,1c0.2,0.2,0.4,0.4,0.6,0.6c0.2,0.2,0.4,0.4,0.7,0.5c0.4,0.3,0.9,0.6,1.4,0.9
		c1,0.5,2.1,0.8,3.1,1s2.1,0.1,3.1,0C19.5,23.9,20.5,23.6,21.4,23.1"/>
	<path class="st3" d="M21.4,23.1c-1.4,1.5-2.8,2.8-4.3,3.8c-0.4,0.2-0.8,0.5-1.1,0.7c-0.4,0.2-0.8,0.4-1.2,0.5
		c-0.4,0.1-0.8,0.3-1.2,0.4c-0.2,0.1-0.4,0.1-0.6,0.2c-0.2,0-0.4,0.1-0.6,0.1c-0.4,0.1-0.9,0.1-1.5,0.3c-0.5,0.1-1.1,0.3-1.6,0.5
		c-0.5,0.2-1.1,0.5-1.5,0.9c-0.4,0.4-0.8,0.7-1.2,1.1c-0.7,0.8-1.3,1.7-1.8,2.6C4.3,35.1,3.9,36,3.7,37c1.6-1.2,3-2.6,4.5-3.7
		c0.7-0.5,1.4-0.9,2.2-1.2c0.4-0.1,0.7-0.2,1.2-0.3c0.4-0.1,0.9-0.1,1.4-0.2c0.2,0,0.5-0.1,0.8-0.2c0.3-0.1,0.5-0.1,0.8-0.2
		c0.5-0.2,1-0.4,1.5-0.7c1-0.5,1.9-1.2,2.6-2c0.7-0.8,1.3-1.7,1.8-2.6C20.9,25.1,21.2,24.1,21.4,23.1"/>
	<path class="st2" d="M56.1,28.8c0,0-2.4,0.8-2.8,2.4c-0.4,1.5-1,3.4,0.3,3.5c1.3,0.1,4.7,0,5.2-2.2s1.2-4,0-3.9s-2.4,0.3-2.4,0.3
		L56.1,28.8L56.1,28.8z"/>
	<path class="st0" d="M41.9,28.8c0,0-2.4,0.8-2.8,2.4c-0.4,1.5-1,3.4,0.3,3.5c1.3,0.1,4.7,0,5.2-2.2s1.2-4,0-3.9s-2.4,0.3-2.4,0.3
		L41.9,28.8L41.9,28.8z"/>
	<path class="st4" d="M24.1,29.9c-0.2-0.1-0.5-0.2-0.6-0.2c-0.2,0-0.4,0-0.5,0s-0.3,0-0.4,0c-0.1,0-0.2-0.1-0.3-0.3
		c-0.1-0.1,0-0.4,0.3-0.6c0.3-0.2,0.6-0.5,1.1-0.6c0.5-0.2,1-0.2,1.5-0.2s1.1,0.2,1.6,0.6c0.5,0.4,0.8,0.8,1.1,1.1s0.5,0.7,0.7,0.9
		c0.2,0.3,0.3,0.6,0.4,0.9c0.6-0.6,1.2-1,1.9-1.4c0.5-0.3,1.2-0.6,1.9-0.8s1.4-0.2,2,0c0.2,0.1,0.2,0.2,0.2,0.4
		c0,0.2-0.1,0.4-0.3,0.6s-0.4,0.5-0.7,0.7c-0.3,0.2-0.6,0.4-1,0.5c-0.7,0.2-1.3,0.5-1.8,1s-0.8,1-1,1.6c-0.2,0.6-0.4,1.3-0.5,2
		c-0.1,0.7-0.1,1.4-0.1,2.1c0,1.4-0.2,2.4-0.6,3.1c-0.4,0.7-1,1-1.6,1.1c-0.8,0-1.4-0.3-1.8-1.1c-0.4-0.8-0.6-2.1-0.6-3.9
		c0-1.2,0-2.2,0-3s0-1.6-0.1-2.2c-0.1-0.6-0.2-1.1-0.3-1.4C24.6,30.3,24.4,30.1,24.1,29.9"/>
	<path class="st4" d="M37.3,30.2c0.3-0.6,0.7-1.1,1.2-1.5c0.5-0.4,1-0.8,1.6-1c0.6-0.3,1.2-0.5,1.8-0.6c0.7-0.1,1.3-0.2,1.9-0.2
		c0.6,0,1.2,0.2,1.6,0.6s0.8,0.9,1,1.4c0.2,0.6,0.2,1.2,0.1,2s-0.4,1.5-0.9,2.2c-0.5,0.8-1.1,1.4-1.8,1.8c-0.6,0.4-1.2,0.7-1.7,0.9
		c-0.6,0.2-1.2,0.3-1.8,0.3c0,0.8,0.1,1.5,0.2,2.1c0.1,0.3,0.2,0.5,0.3,0.7c0.1,0.2,0.3,0.4,0.5,0.6c0.2,0.2,0.4,0.3,0.7,0.4
		c0.3,0.1,0.6,0.1,1,0c0.8-0.1,1.4-0.4,1.9-0.8c0.5-0.4,0.9-0.9,1.2-1.3c0.3-0.5,0.6-0.8,0.8-1.2c0.2-0.3,0.4-0.5,0.6-0.4
		c0.2,0.1,0.4,0.4,0.4,0.8s-0.1,0.9-0.3,1.5c-0.2,0.6-0.5,1.2-0.9,1.8s-0.9,1.1-1.6,1.5c-0.6,0.4-1.4,0.7-2.2,0.9S41,42.7,40,42.4
		c-0.8-0.3-1.5-0.7-2.1-1.2s-1-1.2-1.3-1.9s-0.5-1.5-0.6-2.3s-0.1-1.7,0-2.5s0.2-1.6,0.5-2.3C36.7,31.4,37,30.7,37.3,30.2
		 M40.3,33.7c0.3,0,0.6-0.1,0.9-0.2c0.3-0.1,0.6-0.3,1-0.5c0.3-0.2,0.7-0.5,1.1-0.9c0.4-0.4,0.6-0.7,0.8-1.1s0.2-0.6,0.2-0.9
		c0-0.3,0-0.5-0.1-0.8c-0.3-0.1-0.6-0.1-1,0c-0.3,0.1-0.6,0.3-1,0.5c-0.4,0.3-0.7,0.7-1.1,1.2c-0.3,0.4-0.5,0.8-0.6,1.1
		c-0.1,0.3-0.2,0.6-0.2,0.8C40.2,33.3,40.2,33.5,40.3,33.7"/>
	<path class="st4" d="M51,30.2c0.3-0.6,0.7-1.1,1.2-1.5c0.5-0.4,1-0.8,1.6-1c0.6-0.3,1.2-0.5,1.8-0.6c0.7-0.1,1.3-0.2,1.9-0.2
		c0.6,0,1.2,0.2,1.6,0.6s0.8,0.9,1,1.4c0.2,0.6,0.2,1.2,0.1,2s-0.4,1.5-0.9,2.2c-0.5,0.8-1.1,1.4-1.8,1.8c-0.6,0.4-1.2,0.7-1.7,0.9
		c-0.6,0.2-1.2,0.3-1.8,0.3c0,0.8,0.1,1.5,0.2,2.1c0.1,0.3,0.2,0.5,0.3,0.7c0.1,0.2,0.3,0.4,0.5,0.6c0.2,0.2,0.4,0.3,0.7,0.4
		c0.3,0.1,0.6,0.1,1,0c0.8-0.1,1.4-0.4,1.9-0.8c0.5-0.4,0.9-0.9,1.2-1.3c0.3-0.5,0.6-0.8,0.8-1.2c0.2-0.3,0.4-0.5,0.6-0.4
		c0.2,0.1,0.4,0.4,0.4,0.8s-0.1,0.9-0.3,1.5c-0.2,0.6-0.5,1.2-0.9,1.8s-0.9,1.1-1.6,1.5c-0.6,0.4-1.4,0.7-2.2,0.9s-1.8,0.1-2.8-0.2
		c-0.8-0.3-1.5-0.7-2.1-1.2s-1-1.2-1.3-1.9s-0.5-1.5-0.6-2.3s-0.1-1.7,0-2.5s0.2-1.6,0.5-2.3C50.3,31.4,50.6,30.7,51,30.2 M54,33.7
		c0.3,0,0.6-0.1,0.9-0.2c0.3-0.1,0.6-0.3,1-0.5c0.3-0.2,0.7-0.5,1.1-0.9c0.4-0.4,0.6-0.7,0.8-1.1s0.2-0.6,0.2-0.9
		c0-0.3,0-0.5-0.1-0.8c-0.3-0.1-0.6-0.1-1,0c-0.3,0.1-0.6,0.3-1,0.5c-0.4,0.3-0.7,0.7-1.1,1.2c-0.3,0.4-0.5,0.8-0.6,1.1
		c-0.1,0.3-0.2,0.6-0.2,0.8C53.9,33.3,53.9,33.5,54,33.7"/>
	<path class="st4" d="M73.4,20.2c0,0.3-0.2,0.5-0.5,0.6s-0.7,0.1-1.1,0.1c-0.4,0-0.8,0-1.2,0.1c-0.4,0.1-0.7,0.3-0.8,0.6
		s-0.3,0.7-0.4,1.2c-0.1,0.5-0.2,1-0.2,1.5s-0.1,1.1-0.1,1.7s0,1.2,0,1.7c0,1.3,0,2.7,0.1,4.2c0.2-0.1,0.5-0.1,0.9-0.2
		c0.3-0.1,0.7-0.1,1.1-0.2c0.4-0.1,1-0.2,1.6-0.3c0.6-0.1,1.1-0.1,1.5,0c0.4,0.1,0.6,0.2,0.8,0.4c0.1,0.2,0.1,0.3,0,0.5
		c-0.1,0.2-0.3,0.3-0.7,0.4c-0.7,0.2-1.4,0.4-2,0.6s-1.2,0.4-1.6,0.6c-0.6,0.2-1,0.5-1.5,0.7c0.1,1.6,0.2,3.1,0.1,4.5
		c0,0.6,0,1.2-0.1,1.7c0,0.6-0.1,1.1-0.1,1.6s-0.2,0.9-0.3,1.3c-0.1,0.4-0.2,0.6-0.4,0.8c-0.3,0.3-0.6,0.5-1,0.7
		c-0.3,0.2-0.7,0.3-1,0.4c-0.3,0.1-0.6,0-0.8,0c-0.2-0.1-0.4-0.3-0.4-0.6c0-0.2-0.1-0.4-0.1-0.8c0-0.3,0-0.7-0.1-1.2s0-0.9,0-1.4
		s0-1,0-1.5c0-1.2,0-2.4,0.1-3.8c-0.1,0-0.2,0.1-0.2,0.2c-0.2,0.1-0.5,0.2-0.8,0.2c-0.5,0.1-0.8-0.1-1-0.4s-0.2-0.7,0-1.3
		c0.1-0.3,0.3-0.5,0.5-0.7s0.4-0.4,0.6-0.6c0.2-0.2,0.5-0.3,0.9-0.5c-0.1-1.6-0.1-3.2-0.1-4.7c0-0.6,0-1.3,0.1-2s0.1-1.3,0.2-2
		s0.2-1.3,0.3-1.8s0.3-1.1,0.5-1.5c0.3-0.7,0.7-1.2,1.2-1.6c0.5-0.4,1-0.6,1.5-0.6s1.1-0.1,1.6,0s1,0.2,1.4,0.4s0.8,0.4,1,0.6
		C73.3,19.9,73.4,20.1,73.4,20.2"/>
</g>
<path class="st2" d="M-7,6.4L-7,6.4c-0.9,0-1.7-0.8-1.7-1.7v0C-8.7,3.7-7.9,3-7,3h0C-6,3-5.3,3.7-5.3,4.7v0C-5.3,5.6-6,6.4-7,6.4z"
	/>
<rect x="-8.7" y="11.7" class="st2" width="3.4" height="3.4"/>
<rect x="-8.7" y="15.8" class="st1" width="3.4" height="3.4"/>
<rect x="-8.7" y="19.9" class="st4" width="3.4" height="3.4"/>
</svg>
