<?xml version="1.0" encoding="utf-8"?>
<!-- Generator: Adobe Illustrator 24.0.3, SVG Export Plug-In . SVG Version: 6.00 Build 0)  -->
<svg version="1.1" id="Layer_1" xmlns="http://www.w3.org/2000/svg" xmlns:xlink="http://www.w3.org/1999/xlink" x="0px" y="0px"
	 viewBox="0 0 512 512" style="enable-background:new 0 0 512 512;" xml:space="preserve">
<style type="text/css">
	.st0{fill:#61A8CF;}
</style>
<path class="st0" d="M497.2,271l-33.6-38.7c-6.7-7.7-9-18.2-6.2-28l13.4-46.6c11.4-39.4-18.9-78.6-60.2-77.1l-51.1,1.8
	c-10,0.4-19.5-4.2-25.3-12.3l-29.4-40.3c-24.2-33.1-73.4-33.1-97.6,0l-29.4,40.3c-5.9,8.1-15.4,12.7-25.3,12.3l-51.1-1.8
	c-41.1-1.5-71.6,37.6-60.2,77.1l13.4,46.6c2.8,9.8,0.5,20.3-6.2,28L14.8,271c-27.3,31.5-15.4,80.2,23.1,95.7l44.5,17.9
	c9.6,3.9,16.7,12.6,18.4,22.8l8.5,49.5c7.1,41.2,52.9,63,89.3,42.4l42.4-24c9.1-5.2,20.5-5.2,29.6,0l42.4,24
	c36.2,20.5,82.2-1,89.3-42.4l8.5-49.5c1.8-10.2,8.8-19,18.4-22.8l44.5-17.9C512.6,351.3,524.5,302.5,497.2,271z M462.7,338.5
	l-44.5,17.9c-19.3,7.8-33.6,25.3-37.1,45.9l-8.5,49.5c-3.5,20.6-26.3,31.4-44.4,21.1l-42.4-24c-18.4-10.4-41.2-10.4-59.5,0l-42.4,24
	c-18.1,10.3-40.9-0.5-44.4-21.1l-8.5-49.5c-3.5-20.5-17.7-38.1-37.1-45.9l-44.5-17.9c-19.2-7.7-25-32-11.5-47.6l33.6-38.7
	c13.5-15.5,18.1-36.6,12.4-56.4l-13.4-46.6c-5.7-19.6,9.4-39.1,29.9-38.4l51.1,1.8c20.1,0.7,39.1-8.5,51-24.8l29.4-40.3
	c12-16.5,36.5-16.5,48.5,0L309.7,88c11.8,16.2,30.9,25.5,51,24.8l51.1-1.8c20.5-0.7,35.6,18.7,29.9,38.4l-13.4,46.6
	c-5.7,19.8-1.1,40.8,12.4,56.4l33.6,38.7C487.8,306.5,481.9,330.8,462.7,338.5z"/>
<path class="st0" d="M167.2,250.6H224c7,0,12.7-5.7,12.7-12.7s-5.7-12.7-12.7-12.7h-43.7c0.9-3.7,3.5-6.9,7-8.6
	c0.1,0,27.5-13.1,27.6-13.2c36.9-18.1,24.1-74.2-17.1-74.2c-23.8,0-43.2,19.4-43.2,43.2c0,7,5.7,12.7,12.7,12.7s12.7-5.7,12.7-12.7
	c0-9.9,8-17.9,17.9-17.9c14.4,0,18.8,19.9,6,26.2l-27.4,13.1c-13.3,6.3-21.8,19.9-21.8,34.6v9.5
	C154.6,244.9,160.2,250.6,167.2,250.6z"/>
<path class="st0" d="M266.7,219.5h40.2v18.4c0,7,5.7,12.7,12.7,12.7s12.7-5.7,12.7-12.7v-18.4h1.4c7,0,12.7-5.7,12.7-12.7
	s-5.7-12.7-12.7-12.7h-1.4v-7.3c0-7-5.7-12.7-12.7-12.7s-12.7,5.7-12.7,12.7v7.3h-18.6l25.9-46.1c3.4-6.1,1.3-13.8-4.8-17.2
	c-6.1-3.4-13.8-1.3-17.2,4.8l-36.4,64.9C250.9,209.1,257,219.5,266.7,219.5z"/>
<path class="st0" d="M380,273.1H132c-8.4,0-15.2,6.8-15.2,15.2c0,8.4,6.8,15.2,15.2,15.2h248c8.4,0,15.2-6.8,15.2-15.2
	C395.2,279.9,388.4,273.1,380,273.1z"/>
<path class="st0" d="M273.7,326.4h-46.5c-7,0-12.7,5.7-12.7,12.7s5.7,12.7,12.7,12.7H257l-17.1,61.1c-1.9,6.7,2.1,13.7,8.8,15.6
	c6.7,1.9,13.7-2,15.6-8.8l21.6-77.2C288.1,334.4,282,326.4,273.7,326.4z"/>
</svg>
