<?xml version="1.0" encoding="utf-8"?>
<!-- Generator: Adobe Illustrator 24.0.3, SVG Export Plug-In . SVG Version: 6.00 Build 0)  -->
<svg version="1.1" id="Layer_5" xmlns="http://www.w3.org/2000/svg" xmlns:xlink="http://www.w3.org/1999/xlink" x="0px" y="0px"
	 viewBox="0 0 512 512" style="enable-background:new 0 0 512 512;" xml:space="preserve">
<style type="text/css">
	.st0{fill:#61A8CF;}
</style>
<path class="st0" d="M488,256v32h-32v-32c0-37.3-23.4-69.2-56.2-82c14.6-10.1,24.2-27,24.2-46V64c0-30.9-25.1-56-56-56H144
	c-30.9,0-56,25.1-56,56v64c0,19.1,9.6,36,24.2,46.1c-10.3,4-19.7,9.8-27.9,17.4C63.5,179.1,43.4,165.6,24,151v-23H8v128h16v-27.9
	c10.7,7.4,21.5,14.6,32.4,21.3c-0.2,2.2-0.4,4.4-0.4,6.6v157.3c0,23.9,13.9,45.1,34.4,54.2c-1.6,9.4-2.4,18.9-2.4,28.6v8h336v-8
	c0-9.7-0.8-19.2-2.4-28.6c20.6-9,34.4-30.2,34.4-54.2V352h32v32h16V256L488,256z M440,256v32h-6.1c-3.7,0-7.4-0.2-11.2-0.2
	C414.8,229,364.1,184,304,184h64C407.7,184,440,216.3,440,256z M360,264v19.8c-20.9-2.3-41.7-5.5-62.3-9.7l18.3-73.3
	c45.8,5.4,83.2,40.9,90.6,86.7c-10.2-0.4-20.4-1.1-30.6-2V264H360z M256,226.2L237.3,200h37.5L256,226.2z M294.4,200h5.4l-15.6,62.4
	L266,239.7L294.4,200z M256,184c-35.3,0-64-28.7-64-64s28.7-64,64-64s64,28.7,64,64S291.3,184,256,184z M195.9,200.8l12.1,48.4
	c-22-7.7-43.7-16.5-64.8-26.5C158.4,210.5,176.6,203,195.9,200.8z M226,255.2L212.2,200h5.4l28.4,39.7l-13.9,17.4
	C230.1,256.5,228.1,255.8,226,255.2L226,255.2z M256,252.8l11.5,14.4c-6.3-1.6-12.6-3.4-18.9-5.1L256,252.8z M104,128V64
	c0-22.1,17.9-40,40-40h224c22.1,0,40,17.9,40,40v64c0,22.1-17.9,40-40,40h-48.2c10.1-13.4,16.2-30,16.2-48c0-44.1-35.9-80-80-80
	s-80,35.9-80,80c0,18,6.1,34.6,16.2,48H144C121.9,168,104,150.1,104,128z M144,184h64c-30,0-58.3,11.1-80.4,31.1
	c-9.6-4.8-19.2-9.9-28.6-15.2C111.7,189.8,127.6,184,144,184z M72,413.3V258.5c6.9,4,13.9,7.9,20.9,11.6c-3.2,11-4.9,22.3-4.9,33.8
	v46.8c0,18.4,9,35.6,24.1,46l5.6,3.9c-10.8,15.6-18.8,32.7-23.7,50.7C80.8,444.3,72,429.7,72,413.3z M313.7,437.1
	c-2.8,1.9-6,2.9-9.3,2.9c-9,0-16.4-7.4-16.4-16.4v-2.2c0-5.6,2.8-10.8,7.6-13.8l69.3-44.1c4.9-3.1,8.2-7.8,9.9-13.1
	c11,0.7,22.1,1.2,33.2,1.4c-0.3,12.8-6.6,24.7-17.2,32L313.7,437.1z M189.2,450.2c5.4,3.8,11.8,5.8,18.4,5.8
	c17.9,0,32.4-14.5,32.4-32.4v-2.2c0-11.1-5.6-21.3-15-27.3l-14.3-9.1c28.7-11.5,61.9-11.5,90.6,0l-14.3,9.1c-9.4,6-15,16.2-15,27.3
	v2.2c0,17.9,14.5,32.4,32.4,32.4c6.6,0,13-2,18.4-5.8l32-22.2c12.3,17.8,19.4,38.3,20.8,59.9H136.3c1.4-21.6,8.5-42.1,20.8-59.9
	L189.2,450.2z M356.3,350l-38.9,24.7c-37.9-19.1-84.9-19.1-122.8,0L155.7,350c-2.3-1.5-3.7-4-3.7-6.8v-44.9
	c65.2,27.3,134.3,44.3,205.4,50.7C357.1,349.4,356.7,349.7,356.3,350z M147.1,363.5l69.3,44.1c4.8,3,7.6,8.2,7.6,13.8v2.2
	c0,9-7.3,16.4-16.4,16.4c-3.3,0-6.6-1-9.3-2.9l-77.1-53.4c-10.8-7.5-17.2-19.8-17.2-32.9V304c0-8.9,1.1-17.7,3.4-26.2
	c9.4,4.8,19,9.3,28.6,13.6v51.9C136,351.5,140.2,359,147.1,363.5L147.1,363.5z M130.9,409.9L144,419c-14.2,20.5-22.3,44.1-23.7,69
	h-16.1C105.6,459.8,114.8,433.1,130.9,409.9L130.9,409.9z M391.7,488c-1.4-24.9-9.5-48.5-23.7-69l13.2-9.1
	c16,23.2,25.2,49.9,26.7,78.1L391.7,488L391.7,488z M440,413.3c0,16.4-8.8,31-22,38.2c-4.9-18-12.9-35-23.7-50.7l5.6-3.9
	c14.8-10.2,23.7-27,24.1-44.9H440V413.3z M420.9,336C277.6,336,140.5,291.9,24,208.6v-37.8C142.6,256.7,287.4,304,433.9,304H488v32
	H420.9z"/>
<path class="st0" d="M120,40h16v16h-16V40z"/>
<path class="st0" d="M120,72h16v16h-16V72z"/>
<path class="st0" d="M120,104h16v16h-16V104z"/>
</svg>
