<?xml version="1.0" encoding="utf-8"?>
<!-- Generator: Adobe Illustrator 24.0.3, SVG Export Plug-In . SVG Version: 6.00 Build 0)  -->
<svg version="1.1" id="Capa_1" xmlns="http://www.w3.org/2000/svg" xmlns:xlink="http://www.w3.org/1999/xlink" x="0px" y="0px"
	 viewBox="0 0 512 512" style="enable-background:new 0 0 512 512;" xml:space="preserve">
<style type="text/css">
	.st0{fill:#61A8CF;}
</style>
<g>
	<g>
		<path class="st0" d="M511.3,197.7L486.9,62.7c-3.4-19-18.5-34.1-37.6-37.6L314.3,0.7c-15-2.7-30.5,2.1-41.3,12.9L13.6,273.1
			c-18.2,18.2-18.2,47.8,0,65.9L173,498.4c9.1,9.1,21,13.6,33,13.6c11.9,0,23.9-4.5,33-13.6l259.5-259.5
			C509.1,228.1,514,212.7,511.3,197.7z M477.1,217.7L217.7,477.1c-6.5,6.5-17,6.5-23.5,0L34.9,317.8c-6.5-6.5-6.5-17,0-23.5
			L294.3,34.9c3.1-3.1,7.4-4.9,11.7-4.9c1,0,2,0.1,3,0.3l134.9,24.4c6.8,1.2,12.2,6.6,13.4,13.4L481.7,203
			C482.7,208.3,481,213.8,477.1,217.7z"/>
	</g>
</g>
<g>
	<g>
		<path class="st0" d="M418,93.6c-16-16-42.1-16-58.1,0c-16,16-16,42.1,0,58.1c8,8,18.5,12,29.1,12s21-4,29.1-12
			c7.8-7.8,12-18.1,12-29.1C430,111.7,425.7,101.4,418,93.6z M396.7,130.5L396.7,130.5c-4.3,4.3-11.3,4.3-15.7,0
			c-4.3-4.3-4.3-11.3,0-15.7c2.2-2.2,5-3.2,7.8-3.2c2.8,0,5.7,1.1,7.8,3.2c2.1,2.1,3.2,4.9,3.2,7.8S398.8,128.4,396.7,130.5z"/>
	</g>
</g>
<g>
	<g>
		<path class="st0" d="M191,381.5l-23.2-23.2l13.6-13.6c1.4-1.4,1.9-3,1.5-4.8c-0.4-1.8-1.2-3.4-2.6-4.8c-1.5-1.5-3.2-2.4-5-2.7
			c-1.8-0.3-3.4,0.2-4.7,1.5L157,347.6l-15.2-15.2l23.3-23.3c1.3-1.3,1.8-3,1.3-4.9c-0.4-1.9-1.5-3.8-3.3-5.5
			c-1.6-1.6-3.4-2.7-5.3-3.1c-1.9-0.5-3.6,0-4.9,1.3L121.6,328c-1.7,1.7-2.7,3.5-3.2,5.4c-0.4,2,0,3.6,1.4,5l57.1,57.1
			c1.4,1.4,3.1,1.8,5.3,1.1c2.1-0.6,4.1-1.9,6.1-3.8c1.9-1.9,3.2-3.9,3.8-6.1C192.7,384.7,192.3,382.9,191,381.5z"/>
	</g>
</g>
<g>
	<g>
		<path class="st0" d="M266.4,301.3c-0.7-0.7-1.3-1-2.1-1.2l-30.8-8.9c4.4-10.1,2-19.8-7.4-29.1c-12.8-12.8-26.6-11.9-41.4,2.9
			l-18.6,18.6c-1.3,1.3-1.9,2.7-1.8,4.4s0.6,3,1.8,4.2l57.2,57.2c1.4,1.4,3.1,1.8,5.3,1.1c2.1-0.6,4.1-1.9,6.1-3.8s3.2-3.9,3.8-6.1
			c0.6-2.1,0.3-3.9-1.1-5.3l-21.7-21.7l5.9-5.9l36.2,11.6c2.6,0.8,5,0.2,7.1-1.9c2.1-2.1,3.3-4.9,3.6-8.3
			C268.8,305.6,268.1,303,266.4,301.3z M213.7,293.9l-8.9,8.9l-16.7-16.7l8.9-8.9c2.6-2.6,5.3-4,8-4.1c2.7-0.1,5.5,1.4,8.5,4.4
			c3,3,4.5,5.8,4.4,8.5C217.7,288.6,216.3,291.2,213.7,293.9z"/>
	</g>
</g>
<g>
	<g>
		<path class="st0" d="M319.5,258c-0.5-1.9-1.5-3.7-3.1-5.3c-1.7-1.7-3.6-2.8-5.5-3.3c-1.9-0.4-3.6,0-4.9,1.3l-24.1,24.1l-15.3-15.3
			l13.5-13.5c1.4-1.4,1.9-3,1.5-4.8c-0.4-1.8-1.2-3.4-2.6-4.8c-1.5-1.5-3.2-2.4-5-2.7c-1.8-0.3-3.4,0.2-4.7,1.5l-13.5,13.5
			l-15.2-15.2l24.1-24.1c1.3-1.3,1.8-3,1.3-4.9c-0.4-1.9-1.5-3.8-3.3-5.5c-1.6-1.6-3.4-2.7-5.3-3.1c-1.9-0.5-3.6,0-4.9,1.4l-32,32
			c-1.7,1.7-2.7,3.5-3.2,5.4c-0.4,1.9,0,3.6,1.4,5l57.1,57.1c1.4,1.4,3,1.8,5,1.4c1.9-0.4,3.8-1.5,5.4-3.2l32-32
			C319.6,261.6,320,259.9,319.5,258z"/>
	</g>
</g>
<g>
	<g>
		<path class="st0" d="M368,209.5c-0.5-1.9-1.5-3.7-3.1-5.3c-1.7-1.7-3.6-2.8-5.5-3.3c-1.9-0.4-3.6,0-4.9,1.3l-24.1,24.1L315,211.1
			l13.5-13.5c1.4-1.4,1.9-3,1.5-4.8c-0.4-1.8-1.2-3.4-2.6-4.8c-1.5-1.5-3.2-2.4-5-2.7c-1.8-0.3-3.4,0.2-4.7,1.5l-13.5,13.5
			l-15.2-15.2l24.1-24.1c1.3-1.3,1.8-3,1.3-4.9c-0.4-1.9-1.5-3.8-3.3-5.5c-1.6-1.6-3.4-2.7-5.3-3.1c-1.9-0.5-3.6,0-4.9,1.4l-32,32
			c-1.7,1.7-2.7,3.5-3.2,5.4c-0.5,1.9,0,3.6,1.4,5l57.1,57.1c1.4,1.4,3,1.8,5,1.4c1.9-0.4,3.8-1.5,5.4-3.2l32-32
			C368,213.1,368.5,211.5,368,209.5z"/>
	</g>
</g>
</svg>
