<?xml version="1.0" encoding="utf-8"?>
<!-- Generator: Adobe Illustrator 24.1.0, SVG Export Plug-In . SVG Version: 6.00 Build 0)  -->
<svg version="1.1" id="Capa_1" xmlns="http://www.w3.org/2000/svg" xmlns:xlink="http://www.w3.org/1999/xlink" x="0px" y="0px"
	 viewBox="0 0 512 512" style="enable-background:new 0 0 512 512;" xml:space="preserve">
<style type="text/css">
	.st0{fill:#61A8CF;}
</style>
<g>
	<g>
		<path class="st0" d="M392.5,0h-273c-14.1,0-25.6,11.5-25.6,25.6s11.5,25.6,25.6,25.6h273.1c14.1,0,25.6-11.5,25.6-25.6
			S406.6,0,392.5,0z M392.5,34.1h-273c-4.7,0-8.5-3.8-8.5-8.5s3.8-8.5,8.5-8.5h273.1c4.7,0,8.5,3.8,8.5,8.5S397.2,34.1,392.5,34.1z"
			/>
	</g>
</g>
<g>
	<g>
		<path class="st0" d="M392.5,460.8h-273c-14.1,0-25.6,11.5-25.6,25.6s11.5,25.6,25.6,25.6h273.1c14.1,0,25.6-11.5,25.6-25.6
			S406.6,460.8,392.5,460.8z M392.5,494.9h-273c-4.7,0-8.5-3.8-8.5-8.5s3.8-8.5,8.5-8.5h273.1c4.7,0,8.5,3.8,8.5,8.5
			S397.2,494.9,392.5,494.9z"/>
	</g>
</g>
<g>
	<g>
		<path class="st0" d="M316.8,224.3C360.1,181,384,123.4,384,62.1V42.7c0-4.7-3.8-8.5-8.5-8.5h-239c-4.7,0-8.5,3.8-8.5,8.5v19.4
			c0,61.3,23.9,118.9,67.2,162.2l8.6,8.6c6.1,6.1,9.6,14.5,9.6,23.1s-3.5,17-9.6,23.1l-8.6,8.6C151.9,331,128,388.6,128,449.9v19.4
			c0,4.7,3.8,8.5,8.5,8.5h238.9c4.7,0,8.5-3.8,8.5-8.5v-19.4c0-61.3-23.9-118.9-67.2-162.2l-8.6-8.6c-6.2-6.2-9.6-14.4-9.6-23.1
			s3.4-16.9,9.6-23.1L316.8,224.3z M296.2,220.8c-9.4,9.4-14.6,21.9-14.6,35.2c0,13.3,5.2,25.8,14.6,35.2l8.6,8.6
			c40.1,40.1,62.2,93.4,62.2,150.1v10.9H145.1v-10.9c0-56.7,22.1-110,62.2-150.1l8.6-8.6c9.4-9.4,14.6-21.9,14.6-35.2
			s-5.2-25.8-14.6-35.2l-8.6-8.6c-40.1-40.1-62.2-93.4-62.2-150.1V51.2H367v10.9c0,56.7-22.1,110-62.2,150.1L296.2,220.8z"/>
	</g>
</g>
<g>
	<g>
		<path class="st0" d="M328.1,143.8c-0.9-2.2-3.8-7.2-12.4-7.2c-44.3,0-64.1-9.5-71.9-15.2c-9.8-7.1-22.3-8.9-33.6-4.9
			c-10.7,3.8-18.6,12.2-21.6,23.2c-0.8,2.8-0.9,4.7-0.9,4.7c-0.1,1.7,0.2,3.5,1.1,5c8,14.2,17.2,29.1,30.5,42.4l8.6,8.6
			c12.6,12.6,19.6,29.4,19.6,47.2c0,4.7,3.8,8.5,8.5,8.5c4.7,0,8.5-3.8,8.5-8.5c0-17.8,6.9-34.6,19.6-47.2l8.6-8.6
			c2.1-2.1,4.9-4.7,7.9-7.5C322.6,163.4,331.9,153.3,328.1,143.8z M288.8,171.7c-3.2,3-6,5.7-8.2,7.9l-8.6,8.6
			c-6.6,6.6-12,14.2-16,22.3c-4-8.2-9.4-15.7-16-22.3l-8.6-8.6c-10.5-10.5-18.1-22-26.1-36c2.1-7.1,7.6-10,10.7-11.1
			c6-2.1,12.6-1.1,17.9,2.7c10.9,7.9,32.3,17.1,73.4,18.3C301.9,159.4,293.6,167.2,288.8,171.7z"/>
	</g>
</g>
<g>
	<g>
		<path class="st0" d="M349.3,434.5c-2.1-27.7-13.2-39.2-26.1-52.5c-1.7-1.8-3.5-3.7-5.4-5.6c-10.7-11.5-25.9-18-41.5-18h-40.5
			c-15.7,0-30.8,6.6-41.5,18c-1.9,2-3.7,3.8-5.4,5.6c-12.8,13.3-23.9,24.8-26.1,52.5c-0.2,2.4,0.6,4.7,2.2,6.5
			c1.6,1.7,3.9,2.7,6.3,2.7h169.5c2.4,0,4.6-1,6.3-2.7C348.6,439.2,349.5,436.9,349.3,434.5z M180.9,426.7
			c2.9-14.9,9.8-22,20.1-32.8c1.8-1.9,3.7-3.8,5.6-5.8c7.5-8,18.1-12.6,29.1-12.6h40.5c11,0,21.6,4.6,29.1,12.6
			c1.9,2.1,3.8,4,5.6,5.9c10.3,10.7,17.2,17.9,20.1,32.7L180.9,426.7L180.9,426.7z"/>
	</g>
</g>
<g>
	<g>
		<path class="st0" d="M255.7,273.1c-4.7,0-8.5,3.8-8.5,8.5v8.5c0,4.7,3.8,8.5,8.5,8.5s8.5-3.8,8.5-8.5v-8.5
			C264.3,276.9,260.5,273.1,255.7,273.1z"/>
	</g>
</g>
<g>
	<g>
		<path class="st0" d="M255.7,315.7c-4.7,0-8.5,3.8-8.5,8.5v8.5c0,4.7,3.8,8.5,8.5,8.5s8.5-3.8,8.5-8.5v-8.5
			C264.3,319.5,260.5,315.7,255.7,315.7z"/>
	</g>
</g>
</svg>
