<?xml version="1.0" encoding="utf-8"?>
<!-- Generator: Adobe Illustrator 24.0.3, SVG Export Plug-In . SVG Version: 6.00 Build 0)  -->
<svg version="1.1" id="Layer_1" xmlns="http://www.w3.org/2000/svg" xmlns:xlink="http://www.w3.org/1999/xlink" x="0px" y="0px"
	 viewBox="0 0 512 512" style="enable-background:new 0 0 512 512;" xml:space="preserve">
<style type="text/css">
	.st0{fill:#61A8CF;}
</style>
<title>007 - Car Insurance</title>
<desc>Created with Sketch.</desc>
<g id="Page-1">
	<g id="_x30_07---Car-Insurance">
		<path id="Shape" class="st0" d="M312.4,226.3l66.7,47.5c3,2.1,6.9,2.1,9.9,0l66.7-47.5c13.9-9.8,22.2-25.8,22.3-42.8v-101
			c0-3.4-2-6.5-5.1-7.8l-85.3-36.9c-2.2-0.9-4.6-0.9-6.8,0l-85.3,36.9c-3.1,1.4-5.1,4.4-5.1,7.8v101
			C290.3,200.5,298.5,216.5,312.4,226.3z M307.2,88.2L384,55l76.8,33.2v95.4c-0.1,11.5-5.7,22.3-15.1,28.9L384,256.4l-61.7-43.9
			c-9.4-6.6-15-17.4-15.1-28.9V88.2z"/>
		<path id="Shape_1_" class="st0" d="M361.8,203.1c3.7,2.8,8.9,2.1,11.8-1.5l68.3-85.3c2.9-3.7,2.3-9.1-1.3-12s-9.1-2.3-12,1.3
			l-63.1,78.9l-27.5-20.6c-2.4-1.8-5.7-2.2-8.5-1c-2.8,1.2-4.8,3.8-5.1,6.8c-0.4,3,0.9,6,3.4,7.8L361.8,203.1z"/>
		<path id="Shape_2_" class="st0" d="M17.1,452.3h8.5v34.1c0,14.1,11.5,25.6,25.6,25.6h51.2c14.1,0,25.6-11.5,25.6-25.6v-34.1h204.8
			v34.1c0,14.1,11.5,25.6,25.6,25.6h51.2c14.1,0,25.6-11.5,25.6-25.6v-34.1h8.5c9.4,0,17.1-7.6,17.1-17.1v-128
			c0-12.4-5.4-24.1-14.8-32.2l29.4-20.9c22.9-16.2,36.5-42.5,36.6-70.6V60.1c0-3.4-2-6.5-5.1-7.8L387.4,0.7c-2.2-0.9-4.6-0.9-6.8,0
			L261.1,52.3c-3.1,1.4-5.1,4.4-5.1,7.8v33.7H126.9c-18.1,0-34.2,11.4-40.2,28.5L36.4,265.2c-20.9,3.1-36.3,20.9-36.4,42v128
			C0,444.6,7.6,452.3,17.1,452.3z M110.9,486.4c0,4.7-3.8,8.5-8.5,8.5H51.2c-4.7,0-8.5-3.8-8.5-8.5v-34.1h68.3V486.4z M76.8,435.2
			H59.7v-17.1h17.1V435.2z M418.1,486.4c0,4.7-3.8,8.5-8.5,8.5h-51.2c-4.7,0-8.5-3.8-8.5-8.5v-34.1h68.3V486.4z M401.1,435.2H384
			v-17.1h17.1V435.2z M273.1,65.7L384,17.8l110.9,47.9v117.8c-0.1,22.5-11,43.7-29.4,56.7L384,298.3l-81.5-58
			c-18.4-13-29.3-34.1-29.4-56.7V65.7z M401.1,315.7c4.7,0,8.5,3.8,8.5,8.5v17.1c0,4.7-3.8,8.5-8.5,8.5h-51.2
			c-4.7,0-8.5-3.8-8.5-8.5c0-14.1,11.5-25.6,25.6-25.6H401.1z M256,145.1v17.1h-59.7v-17.1H256z M256,128h-17.1v-17.1H256V128z
			 M102.8,128c3.6-10.2,13.3-17.1,24.1-17.1h95V128h-25.6c-9.4,0-17.1,7.6-17.1,17.1v17.1c0,9.4,7.6,17.1,17.1,17.1H256v4.3
			c0.1,28.1,13.7,54.3,36.6,70.6l14.6,10.4H54.7L102.8,128z M17.1,307.2c0-14.1,11.5-25.6,25.6-25.6h288.5L357,300
			c-19.1,4.6-32.6,21.7-32.7,41.4c0,14.1,11.5,25.6,25.6,25.6h51.2c14.1,0,25.6-11.5,25.6-25.6v-17.1c0-10.5-6.5-20-16.3-23.8
			l21.1-15c7.7,4.6,12.3,12.9,12.3,21.8l0,128h-25.6v-17.1c0-9.4-7.6-17.1-17.1-17.1H384c-9.4,0-17.1,7.6-17.1,17.1v17.1H93.9v-17.1
			c0-9.4-7.6-17.1-17.1-17.1H59.7c-9.4,0-17.1,7.6-17.1,17.1v17.1H17.1V307.2z"/>
		<path id="Shape_3_" class="st0" d="M153.6,128H139c-10.8,0-20.5,6.8-24.1,17.1l-32,91c-1.6,4.4,0.8,9.3,5.2,10.9
			c4.4,1.6,9.3-0.8,10.9-5.2l32-91c1.2-3.4,4.4-5.7,8-5.7h14.6c4.7,0,8.5-3.8,8.5-8.5S158.3,128,153.6,128z"/>
		<path id="Shape_4_" class="st0" d="M59.7,366.9h51.2c14.1,0,25.6-11.5,25.6-25.6c0-23.6-19.1-42.6-42.7-42.7H59.7
			c-14.1,0-25.6,11.5-25.6,25.6v17.1C34.1,355.5,45.6,366.9,59.7,366.9z M51.2,324.3c0-4.7,3.8-8.5,8.5-8.5h34.1
			c14.1,0,25.6,11.5,25.6,25.6c0,4.7-3.8,8.5-8.5,8.5H59.7c-4.7,0-8.5-3.8-8.5-8.5V324.3z"/>
		<path id="Shape_5_" class="st0" d="M170.7,418.1h119.5c9.4,0,17.1-7.6,17.1-17.1v-34.1c0-9.4-7.6-17.1-17.1-17.1H170.7
			c-9.4,0-17.1,7.6-17.1,17.1v34.1C153.6,410.5,161.2,418.1,170.7,418.1z M170.7,366.9h119.5v34.1H170.7V366.9z"/>
	</g>
</g>
</svg>
