<?xml version="1.0" encoding="utf-8"?>
<!-- Generator: Adobe Illustrator 24.0.3, SVG Export Plug-In . SVG Version: 6.00 Build 0)  -->
<svg version="1.1" id="Layer_1" xmlns="http://www.w3.org/2000/svg" xmlns:xlink="http://www.w3.org/1999/xlink" x="0px" y="0px"
	 viewBox="0 0 384 384" style="enable-background:new 0 0 384 384;" xml:space="preserve">
<style type="text/css">
	.st0{fill:#61A8CF;}
</style>
<path class="st0" d="M170.5,375.6c6.2,5.6,13.9,8.4,21.6,8.4c7.7,0,15.3-2.8,21.4-8.3l144.1-128.1c9.9-9,13.1-22.8,8.3-35.2
	C361,200,349.3,192,336,192h-24V32c0-17.6-14.3-32-32-32H104C86.4,0,72,14.3,72,32v160h-24c-13.3,0-25,8-29.8,20.5
	c-4.8,12.4-1.5,26.2,8.5,35.3L170.5,375.6z M72,224c17.6,0,32-14.3,32-32V32h176v160c0,17.6,14.3,32,32,32l24.1-0.1l-144.2,128
	L48.1,224H72z"/>
<path class="st0" d="M208,288v-10.4c23.1-6.9,40-28.3,40-53.6c0-30.9-25.1-56-56-56c-13.2,0-24-10.8-24-24c0-13.2,10.8-24,24-24
	c13.2,0,24,10.8,24,24c0,8.8,7.2,16,16,16s16-7.2,16-16c0-25.3-16.9-46.7-40-53.6V80c0-8.8-7.2-16-16-16c-8.8,0-16,7.2-16,16v10.4
	c-23.1,6.9-40,28.3-40,53.6c0,30.9,25.1,56,56,56c13.2,0,24,10.8,24,24c0,13.2-10.8,24-24,24c-13.2,0-24-10.8-24-24
	c0-8.8-7.2-16-16-16c-8.8,0-16,7.2-16,16c0,25.3,16.9,46.7,40,53.6V288c0,8.8,7.2,16,16,16C200.9,304,208,296.8,208,288z"/>
</svg>
